<svg width="1200" height="381" viewBox="0 0 1200 381" fill="none" xmlns="http://www.w3.org/2000/svg">
<path d="M0 0H1200V381H0V0Z" fill="black"/>
<path d="M319.7 232.42C312.367 232.42 305.62 231.1 299.46 228.46C293.3 225.82 287.947 222.153 283.4 217.46C279 212.767 275.553 207.267 273.06 200.96C270.567 194.507 269.32 187.467 269.32 179.84C269.32 172.36 270.567 165.467 273.06 159.16C275.553 152.707 279 147.133 283.4 142.44C287.947 137.747 293.3 134.08 299.46 131.44C305.62 128.8 312.293 127.48 319.48 127.48C327.693 127.48 335.027 129.167 341.48 132.54C348.08 135.767 353.433 140.313 357.54 146.18L347.64 155.86L346.1 157.4L345 156.3C345 155.127 344.707 154.027 344.12 153C343.68 151.973 342.58 150.58 340.82 148.82C337.593 145.887 334.147 143.833 330.48 142.66C326.813 141.487 322.56 140.9 317.72 140.9C313.467 140.9 309.433 141.78 305.62 143.54C301.807 145.3 298.36 147.867 295.28 151.24C292.347 154.467 290 158.427 288.24 163.12C286.48 167.813 285.6 173.02 285.6 178.74C285.6 184.46 286.48 189.74 288.24 194.58C290 199.273 292.42 203.38 295.5 206.9C298.58 210.42 302.247 213.207 306.5 215.26C310.9 217.167 315.593 218.12 320.58 218.12C323.953 218.12 327.18 217.68 330.26 216.8C333.34 215.773 336.273 214.38 339.06 212.62C341.847 210.713 344.413 208.44 346.76 205.8L356 216.58C351.013 221.86 345.44 225.82 339.28 228.46C333.267 231.1 326.74 232.42 319.7 232.42ZM422 231.76C412.907 231.76 404.84 229.56 397.8 225.16C390.907 220.613 385.48 214.453 381.52 206.68C377.56 198.76 375.58 189.74 375.58 179.62C375.58 169.353 377.56 160.333 381.52 152.56C385.48 144.64 390.907 138.48 397.8 134.08C404.84 129.533 412.907 127.26 422 127.26C431.093 127.26 439.087 129.533 445.98 134.08C453.02 138.48 458.52 144.64 462.48 152.56C466.44 160.333 468.42 169.353 468.42 179.62C468.42 189.74 466.44 198.76 462.48 206.68C458.52 214.453 453.02 220.613 445.98 225.16C439.087 229.56 431.093 231.76 422 231.76ZM422 218.56C427.867 218.56 433 216.873 437.4 213.5C441.8 210.127 445.247 205.507 447.74 199.64C450.38 193.773 451.7 187.027 451.7 179.4C451.7 171.773 450.38 165.027 447.74 159.16C445.247 153.293 441.8 148.747 437.4 145.52C433 142.147 427.867 140.46 422 140.46C416.28 140.46 411.147 142.147 406.6 145.52C402.2 148.747 398.68 153.293 396.04 159.16C393.547 165.027 392.3 171.773 392.3 179.4C392.3 187.027 393.547 193.773 396.04 199.64C398.68 205.507 402.2 210.127 406.6 213.5C411.147 216.873 416.28 218.56 422 218.56ZM485.36 230V129.46H499.88V139.36C501.493 136.867 503.327 134.74 505.38 132.98C507.58 131.073 509.927 129.607 512.42 128.58C515.06 127.553 517.7 127.04 520.34 127.04C523.273 127.04 525.987 127.7 528.48 129.02C530.973 130.193 533.027 131.88 534.64 134.08C536.4 136.28 537.573 138.847 538.16 141.78C539.48 138.847 541.24 136.28 543.44 134.08C545.787 131.88 548.427 130.193 551.36 129.02C554.44 127.7 557.593 127.04 560.82 127.04C564.193 127.04 567.127 127.7 569.62 129.02C572.113 130.34 574.167 132.173 575.78 134.52C577.393 136.72 578.567 139.433 579.3 142.66C580.033 145.74 580.327 149.113 580.18 152.78V230H565.66V158.72C565.66 152.56 565.22 148.087 564.34 145.3C563.607 142.513 562.507 140.753 561.04 140.02C559.573 139.14 557.96 138.7 556.2 138.7C553.413 138.7 550.773 140.02 548.28 142.66C545.933 145.153 543.953 148.307 542.34 152.12C540.873 155.933 540.14 159.747 540.14 163.56V230H525.4V160.04C525.4 151.68 524.593 146.107 522.98 143.32C521.513 140.533 518.653 139.14 514.4 139.14C512.787 139.14 511.1 139.727 509.34 140.9C507.727 141.927 506.187 143.467 504.72 145.52C503.253 147.427 502.08 149.847 501.2 152.78C500.32 155.713 499.88 159.087 499.88 162.9V230H485.36ZM600.2 266.74V129.46H616.26V149.26C617.873 144.127 620.147 139.947 623.08 136.72C626.16 133.493 629.68 131.147 633.64 129.68C637.747 128.067 642.147 127.26 646.84 127.26C652.413 127.26 657.693 128.36 662.68 130.56C667.813 132.613 672.287 135.767 676.1 140.02C680.06 144.273 683.14 149.627 685.34 156.08C687.687 162.533 688.86 170.16 688.86 178.96C688.86 187.76 687.613 195.533 685.12 202.28C682.773 209.027 679.547 214.673 675.44 219.22C671.48 223.62 666.933 226.993 661.8 229.34C656.813 231.54 651.68 232.64 646.4 232.64C642.44 232.64 638.553 231.98 634.74 230.66C631.073 229.487 627.7 227.727 624.62 225.38C621.54 222.887 618.827 220.027 616.48 216.8V266.74H600.2ZM643.76 218.56C647.28 218.56 650.727 217.973 654.1 216.8C657.473 215.48 660.553 213.353 663.34 210.42C666.127 207.487 668.327 203.527 669.94 198.54C671.553 193.407 672.36 187.1 672.36 179.62C672.36 171.553 671.333 164.733 669.28 159.16C667.227 153.44 664.22 149.04 660.26 145.96C656.447 142.88 651.753 141.193 646.18 140.9C642.073 140.607 638.187 141.193 634.52 142.66C631 144.127 627.847 146.547 625.06 149.92C622.273 153.293 620.073 157.767 618.46 163.34C616.993 168.767 616.26 175.367 616.26 183.14C616.407 187.833 616.92 192.087 617.8 195.9C618.68 199.713 619.927 203.087 621.54 206.02C623.153 208.807 625.06 211.153 627.26 213.06C629.46 214.82 631.953 216.213 634.74 217.24C637.527 218.12 640.533 218.56 643.76 218.56ZM749.36 232.42C745.84 232.42 742.833 231.173 740.34 228.68C737.847 226.187 736.6 223.253 736.6 219.88C736.6 216.507 737.847 213.573 740.34 211.08C742.833 208.587 745.84 207.34 749.36 207.34C752.733 207.34 755.667 208.587 758.16 211.08C760.653 213.573 761.9 216.507 761.9 219.88C761.9 223.253 760.653 226.187 758.16 228.68C755.667 231.173 752.733 232.42 749.36 232.42ZM862.22 232.2C856.647 232.2 851.293 231.613 846.16 230.44C841.173 229.267 836.407 227.507 831.86 225.16C827.46 222.813 823.353 219.88 819.54 216.36L828.34 201.4L829.66 199.42L830.98 200.3C831.273 201.473 831.567 202.72 831.86 204.04C832.3 205.213 833.327 206.68 834.94 208.44C838.02 211.52 841.687 214.087 845.94 216.14C850.34 218.047 855.913 219 862.66 219C868.087 219 872.633 218.34 876.3 217.02C880.113 215.7 883.047 213.867 885.1 211.52C887.153 209.027 888.18 206.167 888.18 202.94C888.18 200.74 887.74 198.833 886.86 197.22C885.98 195.46 884.513 193.847 882.46 192.38C880.553 190.913 877.987 189.447 874.76 187.98C871.533 186.513 867.573 185.047 862.88 183.58C855.253 181.38 848.58 178.813 842.86 175.88C837.14 172.947 832.74 169.573 829.66 165.76C826.58 161.8 825.04 157.327 825.04 152.34C825.04 147.207 826.433 142.807 829.22 139.14C832.007 135.327 836.113 132.393 841.54 130.34C847.113 128.14 853.933 127.04 862 127.04C866.693 127.04 870.947 127.407 874.76 128.14C878.573 128.727 882.093 129.68 885.32 131C888.547 132.32 891.48 134.007 894.12 136.06C896.907 137.967 899.547 140.24 902.04 142.88L893.02 153.88L891.48 155.64L890.38 154.54C890.233 153.367 889.867 152.267 889.28 151.24C888.84 150.067 887.813 148.673 886.2 147.06C882.827 144.42 879.013 142.44 874.76 141.12C870.507 139.653 866.4 138.92 862.44 138.92C856.573 138.92 851.513 139.947 847.26 142C843.007 144.053 840.88 147.207 840.88 151.46C840.88 153.66 841.613 155.86 843.08 158.06C844.693 160.113 847.553 162.24 851.66 164.44C855.767 166.493 861.633 168.62 869.26 170.82C877.62 173.46 884.293 176.173 889.28 178.96C894.413 181.6 898.08 184.68 900.28 188.2C902.627 191.72 903.8 195.9 903.8 200.74C903.8 206.313 902.26 211.52 899.18 216.36C896.247 221.2 891.7 225.087 885.54 228.02C879.38 230.807 871.607 232.2 862.22 232.2ZM979.7 232.42C972.367 232.42 965.62 231.1 959.46 228.46C953.3 225.82 947.947 222.153 943.4 217.46C939 212.767 935.553 207.267 933.06 200.96C930.567 194.507 929.32 187.467 929.32 179.84C929.32 172.36 930.567 165.467 933.06 159.16C935.553 152.707 939 147.133 943.4 142.44C947.947 137.747 953.3 134.08 959.46 131.44C965.62 128.8 972.293 127.48 979.48 127.48C987.693 127.48 995.027 129.167 1001.48 132.54C1008.08 135.767 1013.43 140.313 1017.54 146.18L1007.64 155.86L1006.1 157.4L1005 156.3C1005 155.127 1004.71 154.027 1004.12 153C1003.68 151.973 1002.58 150.58 1000.82 148.82C997.593 145.887 994.147 143.833 990.48 142.66C986.813 141.487 982.56 140.9 977.72 140.9C973.467 140.9 969.433 141.78 965.62 143.54C961.807 145.3 958.36 147.867 955.28 151.24C952.347 154.467 950 158.427 948.24 163.12C946.48 167.813 945.6 173.02 945.6 178.74C945.6 184.46 946.48 189.74 948.24 194.58C950 199.273 952.42 203.38 955.5 206.9C958.58 210.42 962.247 213.207 966.5 215.26C970.9 217.167 975.593 218.12 980.58 218.12C983.953 218.12 987.18 217.68 990.26 216.8C993.34 215.773 996.273 214.38 999.06 212.62C1001.85 210.713 1004.41 208.44 1006.76 205.8L1016 216.58C1011.01 221.86 1005.44 225.82 999.28 228.46C993.267 231.1 986.74 232.42 979.7 232.42ZM1049 230V217.24H1074.74V142.22H1050.32V129.46H1090.58V217.24H1114.12V230H1049ZM1081.78 108.34C1078.7 108.34 1076.06 107.24 1073.86 105.04C1071.66 102.84 1070.56 100.2 1070.56 97.12C1070.56 93.8933 1071.59 91.18 1073.64 88.98C1075.84 86.78 1078.55 85.68 1081.78 85.68C1084.86 85.68 1087.5 86.8533 1089.7 89.2C1092.05 91.4 1093.22 94.04 1093.22 97.12C1093.22 100.2 1092.05 102.84 1089.7 105.04C1087.5 107.24 1084.86 108.34 1081.78 108.34Z" fill="white"/>
<path d="M236.962 91.6757C236.962 89.0908 234.871 87 232.286 87H118.853C102.925 87 90 99.9628 90 115.853V243.465C90 259.393 102.963 272.318 118.853 272.318H232.324C234.909 272.318 237 270.227 237 267.642V140.067C237 137.483 234.909 135.392 232.324 135.392H118.853C108.095 135.392 99.3134 126.611 99.3134 115.853C99.3134 105.095 108.095 96.3134 118.853 96.3134H232.324C234.871 96.3134 236.962 94.2227 236.962 91.6757ZM118.853 144.705H227.649V263.005H118.853C108.095 263.005 99.3134 254.223 99.3134 243.465V137.064C104.445 141.816 111.326 144.705 118.853 144.705Z" fill="white"/>
<path d="M120.605 111.785C118.02 111.785 115.929 113.876 115.929 116.461C115.929 119.046 118.02 121.137 120.605 121.137H227.082C229.667 121.137 231.758 119.046 231.758 116.461C231.758 113.876 229.667 111.785 227.082 111.785H120.605Z" fill="white"/>
<path d="M138.506 238.182C140.901 239.094 143.6 237.915 144.512 235.483L151.316 217.692H175.151C175.341 217.692 175.493 217.654 175.645 217.654L182.45 235.483C183.172 237.345 184.921 238.486 186.783 238.486C187.354 238.486 187.886 238.372 188.456 238.182C190.851 237.269 192.067 234.57 191.155 232.175L170.628 178.5C169.487 175.496 166.674 173.558 163.481 173.558C160.288 173.558 157.475 175.496 156.334 178.5L135.807 232.175C134.894 234.57 136.111 237.231 138.506 238.182ZM163.481 185.836L172.11 208.379H154.89L163.481 185.836Z" fill="white"/>
<rect x="119" y="169" width="89" height="83" fill="black"/>
<path d="M190.8 239C188.133 239 185.933 238.533 184.2 237.6C182.533 236.667 181.2 235.367 180.2 233.7C179.2 232.033 178.333 230.1 177.6 227.9L173.3 214.6C172.9 213.267 172.433 211.933 171.9 210.6C171.433 209.2 170.967 207.8 170.5 206.4C170.033 204.933 169.633 203.5 169.3 202.1C169.033 200.633 168.833 199.2 168.7 197.8H168.4C168.2 200.733 167.8 203.433 167.2 205.9C166.667 208.3 165.933 211.1 165 214.3L158.3 238H142L161.7 183.8L160.6 180.6C159.533 177.467 158 175.5 156 174.7C154.067 173.9 151.8 173.5 149.2 173.5C148.067 173.5 147.033 173.567 146.1 173.7C145.167 173.833 144.367 173.967 143.7 174.1V162.3C144.3 162.167 145 162.033 145.8 161.9C146.667 161.767 147.6 161.667 148.6 161.6C149.6 161.533 150.667 161.5 151.8 161.5C155.6 161.5 158.867 161.933 161.6 162.8C164.333 163.667 166.667 165.2 168.6 167.4C170.6 169.6 172.367 172.733 173.9 176.8L188.8 216.6C189.867 219.333 190.733 221.433 191.4 222.9C192.133 224.3 192.833 225.267 193.5 225.8C194.233 226.267 195.067 226.5 196 226.5C196.733 226.5 197.333 226.467 197.8 226.4C198.267 226.267 198.8 226.133 199.4 226V237.5C198.867 237.767 198.067 238 197 238.2C196 238.467 194.933 238.667 193.8 238.8C192.667 238.933 191.667 239 190.8 239Z" fill="white"/>
</svg>
